<?xml version="1.0" encoding="UTF-8" standalone="no"?>
<svg
   width="45"
   height="45"
   version="1.1"
   id="svg4343"
   sodipodi:docname="GD.svg"
   inkscape:version="1.3.2 (091e20e, 2023-11-25, custom)"
   xmlns:inkscape="http://www.inkscape.org/namespaces/inkscape"
   xmlns:sodipodi="http://sodipodi.sourceforge.net/DTD/sodipodi-0.dtd"
   xmlns="http://www.w3.org/2000/svg"
   xmlns:svg="http://www.w3.org/2000/svg"
   xmlns:rdf="http://www.w3.org/1999/02/22-rdf-syntax-ns#"
   xmlns:cc="http://creativecommons.org/ns#"
   xmlns:dc="http://purl.org/dc/elements/1.1/">
  <metadata
     id="metadata4349">
    <rdf:RDF>
      <cc:Work
         rdf:about="">
        <dc:format>image/svg+xml</dc:format>
        <dc:type
           rdf:resource="http://purl.org/dc/dcmitype/StillImage" />
        <dc:title />
      </cc:Work>
    </rdf:RDF>
  </metadata>
  <defs
     id="defs4347" />
  <sodipodi:namedview
     pagecolor="#ffffff"
     bordercolor="#666666"
     borderopacity="1"
     objecttolerance="10"
     gridtolerance="10"
     guidetolerance="10"
     inkscape:pageopacity="0"
     inkscape:pageshadow="2"
     inkscape:window-width="1835"
     inkscape:window-height="1051"
     id="namedview4345"
     showgrid="false"
     inkscape:zoom="22.4"
     inkscape:cx="38.816964"
     inkscape:cy="12.34375"
     inkscape:window-x="-9"
     inkscape:window-y="-9"
     inkscape:window-maximized="1"
     inkscape:current-layer="g6636"
     inkscape:document-rotation="0"
     inkscape:showpageshadow="0"
     inkscape:pagecheckerboard="0"
     inkscape:deskcolor="#505050" />
  <g
     inkscape:groupmode="layer"
     id="layer1"
     inkscape:label="BG" />
  <g
     inkscape:groupmode="layer"
     id="layer2"
     inkscape:label="Working">
    <g
       id="g6636">
      <path
         style="fill:#80bc57;fill-opacity:1;stroke:#000000;stroke-width:1.5;stroke-linecap:butt;stroke-linejoin:miter;stroke-miterlimit:4;stroke-dasharray:none;stroke-opacity:1"
         d="m 14.827901,26.613205 c -1.036574,0.674607 -2.274904,1.080206 -2.541577,2.781348 -1.066277,1.1864 -2.235649,2.295478 -2.253852,4.267933 l 1.816446,-0.109958 c 0,0 -0.617588,1.452677 -0.377818,1.452677 0.239771,0 1.246812,0.527497 1.246812,0.527497 l -0.679588,0.625815 c 0.475122,0.656878 -0.08557,1.847547 1.111176,2.34735 l 2.445669,0.191817 -0.04796,2.302278 9.638811,-4.72e-4 0.287726,-1.198857 -4.016365,-1.837403 0.697632,-9.639702 z"
         id="path6564"
         sodipodi:nodetypes="ccccscccccccccc" />
      <path
         style="fill:#80bc57;fill-opacity:1;stroke:#000000;stroke-width:1.5;stroke-linecap:butt;stroke-linejoin:miter;stroke-miterlimit:4;stroke-dasharray:none;stroke-opacity:1"
         d="m 25.342541,28.678931 3.017884,-6.340946 C 24.616151,20.32256 20.481719,18.923061 16.3228,18.777561 l -1.494899,7.835644 z"
         id="path6566"
         sodipodi:nodetypes="ccccc" />
      <path
         style="fill:#80bc57;fill-opacity:1;stroke:#000000;stroke-width:1.5;stroke-linecap:butt;stroke-linejoin:miter;stroke-miterlimit:4;stroke-dasharray:none;stroke-opacity:1"
         d="m 25.749446,29.357108 c 0.04365,2.378585 -0.362381,4.244033 0.16501,6.863084 0.477914,0.415288 1.098415,0.594277 1.666066,0.291671 0,0 -0.175544,-1.835812 0.508633,-2.237982 0.431394,-0.25358 1.287258,-0.0065 1.42417,0.474724 0.11241,0.395167 -0.27682,1.704563 -0.03391,1.898893 0,0 1.424169,0.644268 1.424169,0.881629 0,0.237361 -0.50741,1.612387 -1.390259,2.136256 -1.257731,0.746318 -4.039577,0.135246 -4.039577,0.135246 -1.608728,-0.390762 -3.151338,-0.847642 -4.378124,-1.620346 l 0.866538,-9.31155 z"
         id="path6568"
         sodipodi:nodetypes="cccsscsscccc" />
      <path
         style="fill:#80bc57;fill-opacity:1;stroke:#000000;stroke-width:1.5;stroke-linecap:butt;stroke-linejoin:miter;stroke-miterlimit:4;stroke-dasharray:none;stroke-opacity:1"
         d="m 27.517526,21.755717 c 0,0 1.423042,-2.498759 1.622802,-2.537342 2.275537,-0.439533 2.410265,13.397506 2.407526,14.580785 0.371251,0.719969 0.937178,1.333052 1.525896,0.678178 l 0.712084,-1.898893 1.186808,2.678795 c 1.128527,0.980421 1.874724,1.137362 1.831074,-0.406905 l -0.271269,-2.03453 1.118991,2.03453 c 0.609409,0.425871 1.331121,1.282237 1.424169,-0.271272 -0.06781,-0.745993 -0.02146,-1.149487 -0.203453,-2.237981 l 1.559806,2.136256 c 1.022553,1.140873 1.141768,0.475069 1.186808,-0.33909 0.763048,-10.058464 -0.846012,-22.939912 -8.138111,-26.347139 0,0 -2.343196,-1.188999 -5.15414,-0.678177 C 26.926709,7.367314 23.634206,11.75775 23.634206,11.75775 23.696196,10.424184 23.005798,5.989514 18.384868,5.205067 15.414649,4.700844 12.533675,4.700758 12.611427,4.895135 8.3910454,5.1889658 5.1145767,5.4341104 3.7541818,7.7407624 3.3434347,8.4372149 3.7382329,10.406869 3.7696215,10.519753 4.2879193,10.505806 5.8668256,8.1586914 11.297742,7.9223909 9.3252062,8.0118289 8.2675029,8.1530243 5.5562183,10.187058 3.8604553,12.331901 5.8067247,12.651923 6.6915577,12.38821 L 11.899343,9.845826 c -1.825466,0.939525 -3.1851349,2.328845 -4.3630079,3.754064 -0.112467,0.04325 0.4493134,2.399831 1.5023634,1.95391 0.88531,-0.374891 2.1422755,-3.451038 4.9029325,-2.986574 2.431585,0.4091 4.189113,5.999164 2.788361,6.306248 3.810615,0.24408 7.487978,1.10498 10.787534,2.882243 z"
         id="path6572"
         sodipodi:nodetypes="cscccccccccccsscscsccccccsscc" />
      <path
         style="fill:none;stroke:#000000;stroke-width:1.14599;stroke-linecap:butt;stroke-linejoin:miter;stroke-miterlimit:4;stroke-dasharray:none;stroke-opacity:1"
         d="m 29.479418,36.647502 c 0,0 -0.746149,1.430482 -1.44137,1.725441 -2.009207,0.227369 -3.373317,-0.414353 -4.533828,-1.583946 l 0.329342,-7.122715"
         id="path6574"
         sodipodi:nodetypes="cccc" />
      <path
         style="fill:none;stroke:#000000;stroke-width:1.4;stroke-linecap:butt;stroke-linejoin:miter;stroke-miterlimit:4;stroke-dasharray:none;stroke-opacity:1"
         d="m 33.785834,32.578445 c 0,0 1.125065,-12.428031 -2.577067,-16.106683 -0.469436,-0.466457 -1.504871,-0.793184 -2.102348,-0.508632 -1.588909,0.756731 -3.055063,5.148686 -3.255246,4.81505"
         id="path6576"
         sodipodi:nodetypes="cssc" />
      <path
         style="fill:none;stroke:#000000;stroke-width:1.4;stroke-linecap:butt;stroke-linejoin:miter;stroke-miterlimit:4;stroke-dasharray:none;stroke-opacity:1"
         d="m 36.600264,33.324435 c 0,0 1.041545,-15.616669 -3.729967,-19.463652 -0.932888,-0.752131 -2.652862,-1.44073 -3.729969,-0.915542 -2.094451,1.021236 -5.289775,6.917397 -5.289775,6.917397"
         id="path6578"
         sodipodi:nodetypes="cssc" />
      <path
         style="fill:none;stroke:#000000;stroke-width:1.4;stroke-linecap:butt;stroke-linejoin:miter;stroke-miterlimit:4;stroke-dasharray:none;stroke-opacity:1"
         d="m 38.872154,32.341082 c 0,0 1.071602,-16.456331 -4.47596,-20.95564 -1.487912,-1.20676 -5.296897,-2.144925 -6.578309,-0.983359 -2.551304,2.312682 -5.730589,9.053649 -5.730589,9.053649"
         id="path6580"
         sodipodi:nodetypes="cssc" />
      <path
         style="fill:none;stroke:#000000;stroke-width:1.4;stroke-linecap:butt;stroke-linejoin:miter;stroke-miterlimit:4;stroke-dasharray:none;stroke-opacity:1"
         d="m 11.058156,7.976191 c 0,0 1.717638,-0.502523 4.647963,0.043259 2.132228,0.397134 3.594948,1.013776 4.769662,2.837005 1.41639,2.198325 0.296112,8.267042 0.296112,8.267042"
         id="path6586"
         sodipodi:nodetypes="cssc" />
      <path
         style="fill:none;stroke:#000000;stroke-width:1.4;stroke-linecap:butt;stroke-linejoin:miter;stroke-miterlimit:4;stroke-dasharray:none;stroke-opacity:1"
         d="M 10.420989,10.482161 C 12.26244,9.5917 12.079613,9.77163 13.838678,9.70587 c 1.629085,-0.0609 3.114818,0.712573 4.12549,2.115851 1.386786,1.925501 1.186808,7.019122 1.186808,7.019122"
         id="path6588"
         sodipodi:nodetypes="cssc" />
      <ellipse
         style="fill:#80bc57;fill-opacity:1;stroke:#000000;stroke-width:1.4;stroke-linecap:square;stroke-linejoin:miter;stroke-miterlimit:4;stroke-dasharray:none;paint-order:normal"
         id="path6590"
         cx="15.524669"
         cy="30.11865"
         rx="1.0417198"
         ry="0.22097087" />
      <path
         style="fill:none;stroke:#000000;stroke-width:1px;stroke-linecap:butt;stroke-linejoin:miter;stroke-opacity:1"
         d="m 14.801079,24.519491 c 4.075601,0.345822 7.717504,1.55904 11.294643,2.901785"
         id="path6608"
         sodipodi:nodetypes="cc" />
      <ellipse
         style="fill:#000000;fill-opacity:1;stroke:#000000;stroke-width:1.5;stroke-linecap:square;stroke-linejoin:miter;stroke-miterlimit:4;stroke-dasharray:none;paint-order:normal"
         id="path6570"
         cx="-24.25746"
         cy="26.847857"
         rx="3.1535187"
         ry="2.7466133"
         transform="scale(-1,1)" />
      <path
         style="fill:none;stroke:#000000;stroke-width:1px;stroke-linecap:butt;stroke-linejoin:miter;stroke-opacity:1"
         d="m 15.9375,21.026786 c 4.075601,0.345822 7.717504,1.55904 11.294643,2.901785"
         id="path6606"
         sodipodi:nodetypes="cc" />
      <path
         style="fill:#517f33;fill-opacity:1;stroke-width:0.0446429;stroke-linejoin:round;stroke-dasharray:0.133929, 0.0669643"
         d="m 19.995573,18.468667 -0.116033,-0.01348 -0.02732,-1.147239 c -0.05327,-2.237133 -0.355958,-3.99445 -0.89671,-5.206012 -0.323241,-0.724225 -1.161469,-1.682527 -1.906989,-2.18016 -0.7013,-0.4681156 -1.468458,-0.7668359 -2.270541,-0.8841159 -0.572727,-0.083744 -2.504305,-0.029144 -2.969944,0.083951 -0.363475,0.088281 -1.167286,0.4279846 -1.651786,0.6980711 -0.147321,0.082125 -1.0611411,0.534922 -2.0307104,1.006215 l -1.7628533,0.856896 -0.3211958,-0.01622 c -0.1766578,-0.0089 -0.3358113,-0.03084 -0.3536744,-0.0487 -0.054335,-0.05434 0.062655,-0.353894 0.2390698,-0.612155 0.1835002,-0.268634 0.3705018,-0.422885 1.1043641,-0.91095 1.3612445,-0.9053138 2.1556161,-1.2185398 3.356793,-1.3236054 0.314478,-0.027507 0.792761,-0.093745 1.06285,-0.1471964 0.432948,-0.085681 0.633738,-0.096963 1.696428,-0.095317 1.003688,0.00155 1.306286,0.017745 1.808596,0.096771 2.140185,0.3367066 3.285048,0.8073912 4.180818,1.7188488 1.04202,1.06027 1.315626,1.956358 1.312788,4.299533 -6.84e-4,0.565254 -0.02191,1.278424 -0.04716,1.584822 -0.0633,0.768027 -0.228048,2.154624 -0.262449,2.208873 -0.01557,0.02455 -0.08052,0.03858 -0.144343,0.03117 z"
         id="path1" />
      <path
         style="fill:#517f33;fill-opacity:1;stroke-width:0.0446429;stroke-linejoin:round;stroke-dasharray:0.133929, 0.0669643"
         d="m 37.82999,33.563797 -0.434374,-0.788881 -0.0066,-2.927637 c -0.0067,-2.954827 -0.02786,-3.524237 -0.205018,-5.516922 -0.421151,-4.737167 -1.391959,-8.077969 -2.928161,-10.076557 -0.997738,-1.298051 -2.684189,-2.187264 -4.166511,-2.196871 -0.756137,-0.0049 -1.186917,0.131883 -1.804444,0.572955 -1.174445,0.838857 -2.917598,3.131625 -4.578844,6.022552 -0.309671,0.538894 -0.335409,0.570433 -0.443708,0.543716 -0.06323,-0.0156 -0.132523,-0.0455 -0.153978,-0.06645 -0.04347,-0.04243 0.652992,-1.418268 1.356712,-2.680136 1.344637,-2.411124 2.744078,-4.452754 3.643355,-5.315251 0.411058,-0.394247 0.660725,-0.48958 1.363381,-0.520599 1.34625,-0.05943 3.108612,0.429762 4.238725,1.176575 0.162419,0.107332 0.487971,0.395877 0.723449,0.641211 1.720927,1.792961 2.895488,5.240908 3.445094,10.113137 0.270634,2.399162 0.352564,4.2437 0.32661,7.353201 -0.01795,2.150213 -0.01277,2.400635 0.05012,2.424877 0.05951,0.02294 0.05661,0.03434 -0.01915,0.07526 -0.04911,0.02652 -0.09531,0.05296 -0.102678,0.05875 -0.0074,0.0058 0.01689,0.289101 0.0539,0.629577 0.06227,0.57282 0.109609,1.266369 0.08643,1.266369 -0.0054,0 -0.205371,-0.354997 -0.444277,-0.788882 z"
         id="path2" />
      <path
         style="fill:#517f33;fill-opacity:1;stroke-width:0.0446429;stroke-linejoin:round;stroke-dasharray:0.133929, 0.0669643"
         d="m 32.402296,33.720017 c -0.05452,-0.08344 -0.07392,-0.346069 -0.09835,-1.331624 -0.173581,-7.002254 -0.749049,-11.453917 -1.682658,-13.016574 -0.197902,-0.331244 -0.510829,-0.653187 -0.758859,-0.780722 -0.298988,-0.153737 -0.816778,-0.174306 -1.087597,-0.04321 -0.282252,0.136636 -0.639387,0.625162 -1.409153,1.927587 l -0.149094,0.252264 -0.148471,-0.0708 c -0.08166,-0.03894 -0.148471,-0.09659 -0.148471,-0.128111 0,-0.09068 0.930118,-1.907101 1.250213,-2.441525 0.372179,-0.621383 0.815033,-1.171945 1.095668,-1.362148 0.20666,-0.140066 0.239442,-0.148398 0.502498,-0.127716 0.385618,0.03032 0.788662,0.233573 1.062099,0.535618 1.324245,1.462793 2.111666,4.504273 2.342983,9.049975 0.0586,1.151506 0.03134,4.526172 -0.04438,5.494648 -0.04118,0.52675 -0.06084,0.606962 -0.316641,1.292171 -0.339313,0.908903 -0.324178,0.881195 -0.409792,0.750162 z"
         id="path3" />
      <path
         style="fill:#517f33;fill-opacity:1;stroke-width:0.0446429;stroke-linejoin:round;stroke-dasharray:0.133929, 0.0669643"
         d="M 20.3125,24.973035 C 19.304204,24.693344 17.693113,24.366553 16.247175,24.14843 l -0.159075,-0.024 0.235629,-1.231032 c 0.129596,-0.677068 0.246886,-1.24229 0.260645,-1.256049 0.04224,-0.04224 1.717258,0.21063 2.647318,0.399661 1.350877,0.274561 2.900999,0.6874 4.384379,1.167678 0.371452,0.120265 0.383674,0.109157 -0.24573,0.223337 -0.425484,0.07719 -0.867725,0.247141 -1.292432,0.496685 -0.338136,0.198677 -0.921861,0.725168 -1.118339,1.008686 -0.06792,0.09801 -0.135833,0.176285 -0.150909,0.173936 -0.01508,-0.0023 -0.238348,-0.06278 -0.496161,-0.1343 z"
         id="path4" />
      <path
         style="fill:#517f33;fill-opacity:1;stroke-width:0.0446429;stroke-linejoin:round;stroke-dasharray:0.133929, 0.0669643"
         d="M 26.428571,23.074082 C 25.642851,22.771535 23.374486,22.017098 22.5,21.767476 c -1.944115,-0.554949 -3.747508,-0.940244 -5.257376,-1.123237 -0.2513,-0.03046 -0.45691,-0.07622 -0.45691,-0.101703 0,-0.02548 0.0334,-0.233309 0.07422,-0.461842 0.05928,-0.331913 0.08946,-0.415515 0.149995,-0.415515 0.433763,0 2.654493,0.290328 3.417107,0.446737 1.368727,0.28072 3.480636,0.988045 5.131001,1.718484 0.500896,0.221693 1.709352,0.806876 1.75747,0.851038 0.03745,0.03437 -0.26203,0.599422 -0.315393,0.59507 -0.03198,-0.0026 -0.289175,-0.0937 -0.571542,-0.202426 z"
         id="path5" />
      <path
         style="fill:#80bc57;fill-opacity:1;stroke-width:0.0446429;stroke-linejoin:round;stroke-dasharray:0.133929, 0.0669643"
         d="m 17.991071,26.448912 c -1.215401,-0.241871 -2.222288,-0.440819 -2.237526,-0.442107 -0.02451,-0.0021 0.122015,-0.803496 0.152469,-0.83395 0.0227,-0.0227 1.18502,0.16009 1.892325,0.297588 0.388369,0.0755 1.133561,0.240644 1.655982,0.366991 l 0.949856,0.229722 -0.02565,0.269993 c -0.0426,0.448394 -0.06755,0.560375 -0.123855,0.555851 -0.02958,-0.0024 -1.048201,-0.202217 -2.263603,-0.444088 z"
         id="path6" />
      <path
         style="fill:#80bc57;fill-opacity:1;stroke-width:0.0446429;stroke-linejoin:round;stroke-dasharray:0.133929, 0.0669643"
         d="m 20.022321,24.880819 c -0.746897,-0.197345 -2.577137,-0.570812 -3.381696,-0.690048 -0.297466,-0.04408 -0.523515,-0.09834 -0.522154,-0.125326 0.0013,-0.02617 0.106788,-0.569909 0.234375,-1.208302 l 0.231975,-1.160714 0.160738,-0.01346 c 0.20102,-0.01683 1.421334,0.169469 2.45087,0.374162 1.232344,0.245016 3.571105,0.867598 4.486607,1.194343 l 0.178571,0.06373 -0.178571,0.03107 c -0.881351,0.153338 -1.510817,0.431818 -2.100385,0.929223 -0.219788,0.18543 -0.479576,0.439367 -0.577306,0.564305 -0.09773,0.124938 -0.208221,0.225088 -0.245536,0.222554 -0.03731,-0.0025 -0.369184,-0.08423 -0.737488,-0.181539 z"
         id="path7" />
      <path
         style="fill:#80bc57;fill-opacity:1;stroke-width:0.0446429;stroke-linejoin:round;stroke-dasharray:0.133929, 0.0669643"
         d="m 26.495536,23.075797 c -0.72829,-0.280001 -3.28763,-1.125068 -4.163536,-1.374756 -1.580756,-0.450615 -3.385216,-0.842722 -4.742714,-1.030586 -0.282366,-0.03908 -0.570994,-0.08247 -0.641396,-0.09643 l -0.128003,-0.02538 0.03033,-0.268123 c 0.01668,-0.147468 0.0542,-0.340589 0.08336,-0.429159 0.05233,-0.158936 0.05593,-0.160882 0.276239,-0.149319 0.830925,0.04361 2.96425,0.363899 3.794643,0.569712 1.171548,0.290369 2.988716,0.910227 4.233313,1.444035 0.823232,0.353084 2.039009,0.950824 2.039009,1.002484 0,0.113614 -0.24235,0.518132 -0.30864,0.515166 -0.03895,-0.0017 -0.251628,-0.07268 -0.47261,-0.157641 z"
         id="path8" />
      <path
         style="fill:#517f33;fill-opacity:1;stroke-width:0.0446429;stroke-linejoin:round;stroke-dasharray:0.133929, 0.0669643"
         d="m 19.924163,24.841965 c -0.78273,-0.197401 -1.897668,-0.429301 -2.975507,-0.618887 -0.41373,-0.07277 -0.763997,-0.144074 -0.77837,-0.158447 -0.02273,-0.02273 0.371261,-2.141092 0.425932,-2.290077 0.03127,-0.08521 0.397222,-0.06855 1.171639,0.05334 1.652171,0.260047 3.691073,0.744996 5.491072,1.30604 l 0.513392,0.16002 -0.506183,0.12483 c -0.852009,0.210115 -1.477321,0.578916 -2.144679,1.264906 -0.217898,0.223982 -0.361486,0.337067 -0.424107,0.334012 -0.05207,-0.0025 -0.400005,-0.08162 -0.773189,-0.175738 z"
         id="path9" />
    </g>
  </g>
</svg>
