<?xml version="1.0" encoding="UTF-8" standalone="no"?>
<svg
   width="45"
   height="45"
   version="1.1"
   id="svg4343"
   sodipodi:docname="GR.svg"
   inkscape:version="1.3.2 (091e20e, 2023-11-25, custom)"
   xmlns:inkscape="http://www.inkscape.org/namespaces/inkscape"
   xmlns:sodipodi="http://sodipodi.sourceforge.net/DTD/sodipodi-0.dtd"
   xmlns="http://www.w3.org/2000/svg"
   xmlns:svg="http://www.w3.org/2000/svg"
   xmlns:rdf="http://www.w3.org/1999/02/22-rdf-syntax-ns#"
   xmlns:cc="http://creativecommons.org/ns#"
   xmlns:dc="http://purl.org/dc/elements/1.1/">
  <metadata
     id="metadata4349">
    <rdf:RDF>
      <cc:Work
         rdf:about="">
        <dc:format>image/svg+xml</dc:format>
        <dc:type
           rdf:resource="http://purl.org/dc/dcmitype/StillImage" />
        <dc:title />
      </cc:Work>
    </rdf:RDF>
  </metadata>
  <defs
     id="defs4347" />
  <sodipodi:namedview
     pagecolor="#ffffff"
     bordercolor="#666666"
     borderopacity="1"
     objecttolerance="10"
     gridtolerance="10"
     guidetolerance="10"
     inkscape:pageopacity="0"
     inkscape:pageshadow="2"
     inkscape:window-width="1835"
     inkscape:window-height="1051"
     id="namedview4345"
     showgrid="false"
     inkscape:zoom="22.4"
     inkscape:cx="30.959821"
     inkscape:cy="27.254464"
     inkscape:window-x="-9"
     inkscape:window-y="-9"
     inkscape:window-maximized="1"
     inkscape:current-layer="layer2"
     inkscape:document-rotation="0"
     inkscape:showpageshadow="0"
     inkscape:pagecheckerboard="0"
     inkscape:deskcolor="#505050" />
  <g
     inkscape:groupmode="layer"
     id="layer1"
     inkscape:label="BG" />
  <g
     inkscape:groupmode="layer"
     id="layer2"
     inkscape:label="Working">
    <g
       id="g9543"
       transform="translate(52.936828,-20.828612)">
      <path
         style="fill:#80bc57;fill-opacity:1;stroke:#000000;stroke-width:1.5;stroke-linecap:butt;stroke-linejoin:miter;stroke-miterlimit:4;stroke-dasharray:none;stroke-opacity:1"
         d="m -44.593614,40.821706 c -0.14384,1.709617 -0.276336,3.778889 0.870535,5.3125 l 0.9375,-3.794643"
         id="path9504"
         sodipodi:nodetypes="ccc" />
      <path
         style="fill:none;stroke:#000000;stroke-width:1.44802;stroke-linecap:butt;stroke-linejoin:miter;stroke-miterlimit:4;stroke-dasharray:none;stroke-opacity:1"
         d="m -33.82716,50.844027 c -0.395223,0 -2.832409,-1.519432 -4.368257,-1.584821 -0.964526,-0.04106 -1.844307,0.815231 -2.808165,0.758928 -1.233333,-0.07204 -3.473804,-1.383928 -3.473804,-1.383928 -0.835389,-0.33281 -1.76117,0.286792 -2.641755,0.78125 -1.061998,0.345674 -1.654971,-0.279304 -2.350539,-0.691964 l 0.603236,1.049107 -1.060862,-0.401786 c 0.384741,0.822744 1.367367,1.773551 2.340137,1.23884 0,0 1.298717,-1.136746 2.319337,-1.104911 1.237281,0.03859 2.13757,1.548176 3.369798,1.674107 1.287387,0.131568 3.22005,-1.151642 3.765021,-1.004465 0.972517,0.262641 2.076419,1.128747 3.088982,1.40625 0.819856,0.22469 2.236131,0.200889 2.236131,0.200889"
         id="path9506"
         sodipodi:nodetypes="csssccccsssssc" />
      <path
         style="fill:#80bc57;fill-opacity:1;stroke:#000000;stroke-width:1.3;stroke-linecap:butt;stroke-linejoin:miter;stroke-miterlimit:4;stroke-dasharray:none;stroke-opacity:1"
         d="m -34.408321,38.30774 4.671956,-1.767767 c 4.299176,-0.0024 8.587727,0.06435 12.721608,1.136421 l -3.851206,1.167989 c 2.935848,0.389228 5.450522,1.241748 7.544577,2.556949 l -6.218752,0.06313 c 2.983446,0.720371 5.726764,1.734232 7.954951,3.377697 l -7.292038,-0.505076 c 3.257632,1.375336 5.926707,3.04495 7.670845,5.177032 l -6.976366,-1.736195 c 2.601809,1.170573 4.455127,2.727429 6.060915,4.230009 l -8.617863,-2.872617 c 2.151898,0.66807 4.139837,1.741365 5.934646,2.872621 1.002492,1.275648 2.720819,2.311924 -1.171161,1.989119 -2.071031,-0.613874 -2.788253,-1.410444 -4.005871,-1.515614 2.168652,1.181895 4.429219,2.73145 6.492025,3.489961 0.147374,0.08421 0.433301,1.776357 -0.441942,1.452094 -1.902939,1.050894 -4.477369,-1.38264 -4.567351,-1.904867 l 1.200486,2.076709 c -0.577983,0.903085 -0.678958,2.307029 -2.841054,1.546796 l -1.925603,-2.272843 c 0,0 0.888327,3.076494 0.947018,3.188294 0.209011,0.398145 -1.294349,1.219176 -2.241276,0.0947 l -2.209709,-1.830902 0.220971,2.43068 c 0.179644,0.694252 -1.321032,0.46797 -2.020305,-0.220971 -0.686064,-0.675927 -4.011788,-4.006851 -3.756505,-4.103745"
         id="path9512"
         sodipodi:nodetypes="cccccccccccccccccccccscccsc" />
      <path
         style="fill:none;stroke:#000000;stroke-width:1.2;stroke-linecap:butt;stroke-linejoin:miter;stroke-miterlimit:4;stroke-dasharray:none;stroke-opacity:1"
         d="m -32.924659,39.759834 c 4.505496,-1.296111 8.597994,-0.66489 12.879445,-0.915451"
         id="path9514"
         sodipodi:nodetypes="cc" />
      <path
         style="fill:none;stroke:#000000;stroke-width:1.2;stroke-linecap:butt;stroke-linejoin:miter;stroke-miterlimit:4;stroke-dasharray:none;stroke-opacity:1"
         d="m -31.819805,41.180361 c 4.4911,-0.33277 8.848886,-0.0201 13.005714,0.315673"
         id="path9516"
         sodipodi:nodetypes="cc" />
      <path
         style="fill:#80bc57;fill-opacity:1;stroke:#000000;stroke-width:1.5;stroke-linecap:butt;stroke-linejoin:miter;stroke-miterlimit:4;stroke-dasharray:none;stroke-opacity:1"
         d="m -35.418473,38.939085 c -1.310104,0.247242 -3.375852,-0.110031 -5.241262,-0.307035 l -2.713689,-2.281481 c -0.713114,1.360462 -1.32792,2.760246 -1.452095,4.356283 4.858718,3.291489 8.636151,7.033513 12.520444,10.731013 l -7.331266,3.002991 c -2.083899,1.097941 -4.404647,1.769554 -7.083214,1.797092 -0.487248,1.021881 -0.09146,1.712623 1.325825,2.020305 4.306615,1.03841 6.011541,-1.63988 8.838835,-2.714785 l 4.166879,0.505076 1.262691,0.378807 c 2.884898,-1.181389 4.985937,-2.764757 4.608821,-5.618973 l -0.505076,-2.714785 c -1.97217,-3.299649 -4.322648,-6.570198 -7.386741,-9.785853 z"
         id="path9502"
         sodipodi:nodetypes="ccccccccccccccc" />
      <path
         style="fill:none;stroke:#000000;stroke-width:1.2;stroke-linecap:butt;stroke-linejoin:miter;stroke-miterlimit:4;stroke-dasharray:none;stroke-opacity:1"
         d="m -30.399278,42.758724 c 4.021294,0.440213 7.809804,0.829101 11.522053,1.578359"
         id="path9518"
         sodipodi:nodetypes="cc" />
      <path
         style="fill:none;stroke:#000000;stroke-width:1.5;stroke-linecap:butt;stroke-linejoin:miter;stroke-miterlimit:4;stroke-dasharray:none;stroke-opacity:1"
         d="m -38.008793,40.955635 c 0.229376,0.97075 0.565108,1.898956 1.383929,2.633928 1.957296,0.591394 2.359619,0.327553 3.214285,0.3125 -0.497693,-0.891611 -1.051485,-1.741148 -1.785714,-2.455357 -0.806258,-0.513668 -1.839747,-0.421389 -2.8125,-0.491071 z"
         id="path9508"
         sodipodi:nodetypes="ccccc" />
      <path
         style="fill:none;stroke:#000000;stroke-width:1.2;stroke-linecap:butt;stroke-linejoin:miter;stroke-miterlimit:4;stroke-dasharray:none;stroke-opacity:1"
         d="m -28.41054,45.947018 c 3.698874,0.387524 8.439004,0.527724 10.701303,2.020306"
         id="path9520"
         sodipodi:nodetypes="cc" />
      <path
         style="fill:none;stroke:#000000;stroke-width:1.2;stroke-linecap:butt;stroke-linejoin:miter;stroke-miterlimit:4;stroke-dasharray:none;stroke-opacity:1"
         d="m -27.02158,48.093593 6.723828,1.041719"
         id="path9522"
         sodipodi:nodetypes="cc" />
      <path
         style="fill:none;stroke:#000000;stroke-width:1.2;stroke-linecap:butt;stroke-linejoin:miter;stroke-miterlimit:4;stroke-dasharray:none;stroke-opacity:1"
         d="m -26.390235,49.987629 6.408155,2.493809"
         id="path9524"
         sodipodi:nodetypes="cc" />
      <path
         style="fill:none;stroke:#000000;stroke-width:1.2;stroke-linecap:round;stroke-linejoin:miter;stroke-miterlimit:4;stroke-dasharray:none;stroke-opacity:1"
         d="m -26.200831,52.197337 c 2.077424,0.798202 3.970748,1.657771 4.987628,2.809487"
         id="path9526"
         sodipodi:nodetypes="cc" />
      <path
         style="fill:none;stroke:#000000;stroke-width:1.2;stroke-linecap:round;stroke-linejoin:miter;stroke-miterlimit:4;stroke-dasharray:none;stroke-opacity:1"
         d="m -27.558224,54.343911 c 0.620225,0.08789 3.196234,1.69387 3.440832,2.367546"
         id="path9528"
         sodipodi:nodetypes="cc" />
    </g>
    <path
       style="fill:#528033;fill-opacity:1;stroke-width:0.0446429;stroke-linejoin:round;stroke-dasharray:0.133929, 0.0669643"
       d="m 32.946428,19.955321 c -0.03683,-0.0104 -0.529017,-0.05023 -1.09375,-0.08849 -3.723194,-0.252305 -6.066932,-0.322508 -8.359045,-0.250381 -0.902525,0.0284 -1.711267,0.0622 -1.797205,0.07512 -0.144098,0.02165 -0.169588,0.0068 -0.327755,-0.191184 l -0.171505,-0.214666 0.17558,-0.05092 c 0.280097,-0.08123 1.45124,-0.272241 2.131716,-0.347683 1.304647,-0.144641 1.922782,-0.167195 5.178572,-0.18895 l 3.348214,-0.02237 0.803571,0.138613 c 1.043854,0.18006 2.100423,0.441031 2.991072,0.738789 1.181209,0.394897 1.175847,0.376066 0.107661,0.378097 -0.505519,9.61e-4 -1.369358,0.01102 -1.919643,0.02235 -0.550285,0.01133 -1.030652,0.01209 -1.067483,0.0017 z"
       id="path1" />
    <path
       style="fill:#528033;fill-opacity:1;stroke-width:0.0446429;stroke-linejoin:round;stroke-dasharray:0.133929, 0.0669643"
       d="m 37.165178,26.85662 c -1.595251,-0.401701 -2.183199,-0.568432 -2.452746,-0.695556 -0.476357,-0.224659 -1.387685,-0.519148 -2.123146,-0.686079 -1.327096,-0.301217 -2.764664,-0.494469 -5.513393,-0.741166 -0.982143,-0.08815 -1.825893,-0.16915 -1.875,-0.180006 -0.04911,-0.01086 -0.143816,-0.106729 -0.210464,-0.21305 -0.06665,-0.106322 -0.343381,-0.511585 -0.614964,-0.900586 -0.271582,-0.389 -0.487481,-0.713578 -0.479774,-0.721285 0.0077,-0.0077 0.636004,0.05572 1.396214,0.140955 4.412577,0.494724 8.113227,1.062176 8.658988,1.327756 0.122768,0.05974 0.373884,0.174225 0.558035,0.254407 0.572,0.249056 1.960004,0.956015 2.544643,1.296075 0.653415,0.380064 1.330762,0.826712 1.907178,1.257607 0.448513,0.335283 0.505679,0.39358 0.383403,0.39099 -0.04442,-9.41e-4 -1.024956,-0.239469 -2.178974,-0.530062 z"
       id="path2" />
    <path
       style="fill:#528033;fill-opacity:1;stroke-width:0.0446429;stroke-linejoin:round;stroke-dasharray:0.133929, 0.0669643"
       d="M 37.366071,32.521491 C 36.922488,32.483709 36.44681,32.317052 35.424107,31.841111 34.030822,31.19271 33.52055,31.004915 33.150074,31.0042 c -0.170904,-3.29e-4 -6.099683,-2.299971 -6.170913,-2.393559 -0.05665,-0.07444 -0.127856,-0.499148 -0.09002,-0.53698 0.01282,-0.01282 1.167736,0.153472 2.566489,0.369529 1.76992,0.273389 2.537185,0.408472 2.523448,0.444271 -0.01224,0.03189 0.206826,0.128705 0.576516,0.254782 1.358393,0.46326 2.767852,1.142022 4.453338,2.144622 0.617125,0.367093 0.665667,0.407451 1.154151,0.959549 l 0.283616,0.32055 -0.35058,-0.0066 c -0.192819,-0.0036 -0.521338,-0.02112 -0.730044,-0.0389 z"
       id="path3" />
    <path
       style="fill:#528033;fill-opacity:1;stroke-width:0.0446429;stroke-linejoin:round;stroke-dasharray:0.133929, 0.0669643"
       d="m 17.321428,22.230039 c -0.257812,-0.05911 -0.513536,-0.127401 -0.568275,-0.151755 -0.123313,-0.05486 -0.469072,-0.518591 -0.64254,-0.861766 l -0.129756,-0.256697 h 0.152966 c 0.255002,0 0.811414,0.122397 1.004716,0.221012 0.165158,0.08426 0.631536,0.592489 0.934006,1.017828 l 0.103178,0.145089 -0.192772,-0.0031 c -0.106025,-0.0017 -0.40371,-0.05148 -0.661523,-0.110593 z"
       id="path4" />
  </g>
</svg>
