<?xml version="1.0" encoding="UTF-8" standalone="no"?>
<svg
   width="45"
   height="45"
   version="1.1"
   id="svg5908"
   sodipodi:docname="GW.svg"
   inkscape:version="1.3.2 (091e20e, 2023-11-25, custom)"
   xmlns:inkscape="http://www.inkscape.org/namespaces/inkscape"
   xmlns:sodipodi="http://sodipodi.sourceforge.net/DTD/sodipodi-0.dtd"
   xmlns="http://www.w3.org/2000/svg"
   xmlns:svg="http://www.w3.org/2000/svg"
   xmlns:rdf="http://www.w3.org/1999/02/22-rdf-syntax-ns#"
   xmlns:cc="http://creativecommons.org/ns#"
   xmlns:dc="http://purl.org/dc/elements/1.1/">
  <metadata
     id="metadata5914">
    <rdf:RDF>
      <cc:Work
         rdf:about="">
        <dc:format>image/svg+xml</dc:format>
        <dc:type
           rdf:resource="http://purl.org/dc/dcmitype/StillImage" />
        <dc:title />
      </cc:Work>
    </rdf:RDF>
  </metadata>
  <defs
     id="defs5912" />
  <sodipodi:namedview
     pagecolor="#ffffff"
     bordercolor="#666666"
     borderopacity="1"
     objecttolerance="10"
     gridtolerance="10"
     guidetolerance="10"
     inkscape:pageopacity="0"
     inkscape:pageshadow="2"
     inkscape:window-width="1835"
     inkscape:window-height="1051"
     id="namedview5910"
     showgrid="false"
     inkscape:zoom="15.839192"
     inkscape:cx="8.4284602"
     inkscape:cy="24.71717"
     inkscape:window-x="-9"
     inkscape:window-y="-9"
     inkscape:window-maximized="1"
     inkscape:current-layer="g6495"
     inkscape:showpageshadow="0"
     inkscape:pagecheckerboard="0"
     inkscape:deskcolor="#505050" />
  <g
     id="g6495"
     transform="translate(0,3.231647)">
    <path
       d="m 22.355324,19.062004 c -3.445086,0 -6.23545,2.790364 -6.23545,6.23545 0,1.387387 0.45207,2.665654 1.215913,3.710092 -3.039782,1.745926 -5.113069,5.003949 -5.113069,8.760807 h 20.265211 c 0,-3.756858 -2.073287,-7.014881 -5.113068,-8.760807 0.763842,-1.044438 1.215912,-2.322705 1.215912,-3.710092 0,-3.445086 -2.790363,-6.23545 -6.235449,-6.23545 z"
       fill="#ffffff"
       stroke="#000000"
       stroke-width="2.33829"
       stroke-linecap="round"
       id="path5906"
       sodipodi:nodetypes="ssccccss"
       style="fill:#80bc57;fill-opacity:1;stroke-width:1.5;stroke-miterlimit:4;stroke-dasharray:none" />
    <path
       style="fill:#80bc57;fill-opacity:1;stroke:#000000;stroke-width:1.5;stroke-linecap:butt;stroke-linejoin:miter;stroke-miterlimit:4;stroke-dasharray:none;stroke-opacity:1"
       d="M 20.580357,16.651786 C 15.34418,14.675173 12.4543,20.682069 7.6376457,24.583984 c 0,0 4.1881673,-10.376044 7.4962823,-12.039341 4.026265,-2.024377 5.458103,4.095469 5.446429,4.107143 z"
       id="path6479"
       sodipodi:nodetypes="ccsc" />
    <path
       style="fill:#80bc57;fill-opacity:1;stroke:#000000;stroke-width:1.5;stroke-linecap:butt;stroke-linejoin:miter;stroke-miterlimit:4;stroke-dasharray:none;stroke-opacity:1"
       d="M 21.917994,17.38986 C 19.617637,12.796991 13.324926,9.4007285 7.2369069,8.4211711 c 0,0 11.4635891,-0.3074536 14.2219381,2.1627069 1.723442,1.543378 0.459149,6.805982 0.459149,6.805982 z"
       id="path6481"
       sodipodi:nodetypes="ccsc" />
    <path
       style="fill:#80bc57;fill-opacity:1;stroke:#000000;stroke-width:1.5;stroke-linecap:butt;stroke-linejoin:miter;stroke-miterlimit:4;stroke-dasharray:none;stroke-opacity:1"
       d="M 22.672252,17.634181 C 22.457743,12.900794 20.964812,7.7560433 17.51042,2.9600503 c 0,0 7.264379,5.083594 8.325919,8.6308907 0.663261,2.216383 -3.164087,6.04324 -3.164087,6.04324 z"
       id="path6483"
       sodipodi:nodetypes="ccsc" />
    <path
       style="fill:#80bc57;fill-opacity:1;stroke:#000000;stroke-width:1.5;stroke-linecap:butt;stroke-linejoin:miter;stroke-miterlimit:4;stroke-dasharray:none;stroke-opacity:1"
       d="m 23.138492,17.656308 c 3.902322,-3.131624 2.768079,-8.1040736 1.271121,-14.3764489 0.415409,-0.3323268 7.382486,7.4086829 4.53732,11.6665039 -1.285367,1.923565 -5.808441,2.709945 -5.808441,2.709945 z"
       id="path6485"
       sodipodi:nodetypes="ccsc" />
    <ellipse
       style="fill:#000000;fill-opacity:1;stroke:#000000;stroke-width:1.5;stroke-linecap:square;stroke-miterlimit:4;stroke-dasharray:none;paint-order:normal"
       id="path6477"
       cx="22.355324"
       cy="20.491072"
       rx="2.7455356"
       ry="6.25" />
    <path
       style="fill:#528033;fill-opacity:1;stroke-width:0.0631345;stroke-linejoin:round;stroke-dasharray:0.189404, 0.0947018"
       d="m 20.045214,16.866812 c -1.42193,-1.41636 -3.572931,-2.861347 -5.724081,-3.845292 -0.474497,-0.217038 -0.855145,-0.402243 -0.845884,-0.411568 0.0093,-0.0093 0.440101,0.02635 0.957424,0.07928 2.764327,0.282815 4.638611,0.693554 5.774048,1.265352 0.539094,0.271482 0.527367,0.248434 0.922689,1.813445 0.25376,1.004591 0.275985,1.145449 0.18846,1.194431 -0.05457,0.03054 -0.228543,0.154239 -0.386598,0.274885 -0.158055,0.120646 -0.294229,0.213979 -0.302609,0.207405 -0.0084,-0.0066 -0.270933,-0.266644 -0.583449,-0.577935 z"
       id="path1"
       transform="translate(0,-3.231647)" />
    <path
       style="fill:#528033;fill-opacity:1;stroke-width:0.0631345;stroke-linejoin:round;stroke-dasharray:0.189404, 0.0947018"
       d="m 25.506352,19.380726 c 0,-0.01823 0.09545,-0.224205 0.212115,-0.457725 0.723172,-1.447541 0.986936,-3.283779 0.795566,-5.53848 -0.07001,-0.824818 -0.365121,-2.726354 -0.565882,-3.6462084 -0.06937,-0.3178413 -0.126127,-0.6211295 -0.126127,-0.6739738 0,-0.1446287 0.814336,0.9947382 1.350798,1.8899492 0.853442,1.424168 1.396839,2.773023 1.585334,3.935221 0.116681,0.719417 0.117443,1.153516 0.003,1.693602 -0.253003,1.193709 -0.93853,1.885731 -2.56092,2.585181 -0.552609,0.238243 -0.693857,0.281488 -0.693857,0.212434 z"
       id="path2"
       transform="translate(0,-3.231647)" />
  </g>
</svg>
