<?xml version="1.0" encoding="UTF-8" standalone="no"?>
<svg
   width="45"
   height="45"
   version="1.1"
   id="svg4343"
   sodipodi:docname="WD.svg"
   inkscape:version="1.3.2 (091e20e, 2023-11-25, custom)"
   xmlns:inkscape="http://www.inkscape.org/namespaces/inkscape"
   xmlns:sodipodi="http://sodipodi.sourceforge.net/DTD/sodipodi-0.dtd"
   xmlns="http://www.w3.org/2000/svg"
   xmlns:svg="http://www.w3.org/2000/svg"
   xmlns:rdf="http://www.w3.org/1999/02/22-rdf-syntax-ns#"
   xmlns:cc="http://creativecommons.org/ns#"
   xmlns:dc="http://purl.org/dc/elements/1.1/">
  <metadata
     id="metadata4349">
    <rdf:RDF>
      <cc:Work
         rdf:about="">
        <dc:format>image/svg+xml</dc:format>
        <dc:type
           rdf:resource="http://purl.org/dc/dcmitype/StillImage" />
        <dc:title />
      </cc:Work>
    </rdf:RDF>
  </metadata>
  <defs
     id="defs4347" />
  <sodipodi:namedview
     pagecolor="#ffffff"
     bordercolor="#666666"
     borderopacity="1"
     objecttolerance="10"
     gridtolerance="10"
     guidetolerance="10"
     inkscape:pageopacity="0"
     inkscape:pageshadow="2"
     inkscape:window-width="1835"
     inkscape:window-height="1051"
     id="namedview4345"
     showgrid="false"
     inkscape:zoom="22.4"
     inkscape:cx="30.736607"
     inkscape:cy="19.84375"
     inkscape:window-x="-9"
     inkscape:window-y="-9"
     inkscape:window-maximized="1"
     inkscape:current-layer="g6636"
     inkscape:document-rotation="0"
     inkscape:showpageshadow="0"
     inkscape:pagecheckerboard="0"
     inkscape:deskcolor="#505050" />
  <g
     inkscape:groupmode="layer"
     id="layer1"
     inkscape:label="BG" />
  <g
     inkscape:groupmode="layer"
     id="layer2"
     inkscape:label="Working">
    <g
       id="g6636">
      <path
         style="fill:#f4eed7;fill-opacity:1;stroke:#000000;stroke-width:1.5;stroke-linecap:butt;stroke-linejoin:miter;stroke-miterlimit:4;stroke-dasharray:none;stroke-opacity:1"
         d="m 14.827901,26.613205 c -1.036574,0.674607 -2.274904,1.080206 -2.541577,2.781348 -1.066277,1.1864 -2.235649,2.295478 -2.253852,4.267933 l 1.816446,-0.109958 c 0,0 -0.617588,1.452677 -0.377818,1.452677 0.239771,0 1.246812,0.527497 1.246812,0.527497 l -0.679588,0.625815 c 0.475122,0.656878 -0.08557,1.847547 1.111176,2.34735 l 2.445669,0.191817 -0.04796,2.302278 9.638811,-4.72e-4 0.287726,-1.198857 -4.016365,-1.837403 0.697632,-9.639702 z"
         id="path6564"
         sodipodi:nodetypes="ccccscccccccccc" />
      <path
         style="fill:#f4eed7;fill-opacity:1;stroke:#000000;stroke-width:1.5;stroke-linecap:butt;stroke-linejoin:miter;stroke-miterlimit:4;stroke-dasharray:none;stroke-opacity:1"
         d="m 25.342541,28.678931 3.017884,-6.340946 C 24.616151,20.32256 20.481719,18.923061 16.3228,18.777561 l -1.494899,7.835644 z"
         id="path6566"
         sodipodi:nodetypes="ccccc" />
      <path
         style="fill:#f4eed7;fill-opacity:1;stroke:#000000;stroke-width:1.5;stroke-linecap:butt;stroke-linejoin:miter;stroke-miterlimit:4;stroke-dasharray:none;stroke-opacity:1"
         d="m 25.749446,29.357108 c 0.04365,2.378585 -0.362381,4.244033 0.16501,6.863084 0.477914,0.415288 1.098415,0.594277 1.666066,0.291671 0,0 -0.175544,-1.835812 0.508633,-2.237982 0.431394,-0.25358 1.287258,-0.0065 1.42417,0.474724 0.11241,0.395167 -0.27682,1.704563 -0.03391,1.898893 0,0 1.424169,0.644268 1.424169,0.881629 0,0.237361 -0.50741,1.612387 -1.390259,2.136256 -1.257731,0.746318 -4.039577,0.135246 -4.039577,0.135246 -1.608728,-0.390762 -3.151338,-0.847642 -4.378124,-1.620346 l 0.866538,-9.31155 z"
         id="path6568"
         sodipodi:nodetypes="cccsscsscccc" />
      <path
         style="fill:#f4eed7;fill-opacity:1;stroke:#000000;stroke-width:1.5;stroke-linecap:butt;stroke-linejoin:miter;stroke-miterlimit:4;stroke-dasharray:none;stroke-opacity:1"
         d="m 27.517526,21.755717 c 0,0 1.423042,-2.498759 1.622802,-2.537342 2.275537,-0.439533 2.410265,13.397506 2.407526,14.580785 0.371251,0.719969 0.937178,1.333052 1.525896,0.678178 l 0.712084,-1.898893 1.186808,2.678795 c 1.128527,0.980421 1.874724,1.137362 1.831074,-0.406905 l -0.271269,-2.03453 1.118991,2.03453 c 0.609409,0.425871 1.331121,1.282237 1.424169,-0.271272 -0.06781,-0.745993 -0.02146,-1.149487 -0.203453,-2.237981 l 1.559806,2.136256 c 1.022553,1.140873 1.141768,0.475069 1.186808,-0.33909 0.763048,-10.058464 -0.846012,-22.939912 -8.138111,-26.347139 0,0 -2.343196,-1.188999 -5.15414,-0.678177 C 26.926709,7.367314 23.634206,11.75775 23.634206,11.75775 23.696196,10.424184 23.005798,5.989514 18.384868,5.205067 15.414649,4.700844 12.533675,4.700758 12.611427,4.895135 8.3910454,5.1889658 5.1145767,5.4341104 3.7541818,7.7407624 3.3434347,8.4372149 3.7382329,10.406869 3.7696215,10.519753 4.2879193,10.505806 5.8668256,8.1586914 11.297742,7.9223909 9.3252062,8.0118289 8.2675029,8.1530243 5.5562183,10.187058 3.8604553,12.331901 5.8067247,12.651923 6.6915577,12.38821 L 11.899343,9.845826 c -1.825466,0.939525 -3.1851349,2.328845 -4.3630079,3.754064 -0.112467,0.04325 0.4493134,2.399831 1.5023634,1.95391 0.88531,-0.374891 2.1422755,-3.451038 4.9029325,-2.986574 2.431585,0.4091 4.189113,5.999164 2.788361,6.306248 3.810615,0.24408 7.487978,1.10498 10.787534,2.882243 z"
         id="path6572"
         sodipodi:nodetypes="cscccccccccccsscscsccccccsscc" />
      <path
         style="fill:none;stroke:#000000;stroke-width:1.14599;stroke-linecap:butt;stroke-linejoin:miter;stroke-miterlimit:4;stroke-dasharray:none;stroke-opacity:1"
         d="m 29.479418,36.647502 c 0,0 -0.746149,1.430482 -1.44137,1.725441 -2.009207,0.227369 -3.373317,-0.414353 -4.533828,-1.583946 l 0.329342,-7.122715"
         id="path6574"
         sodipodi:nodetypes="cccc" />
      <path
         style="fill:none;stroke:#000000;stroke-width:1.4;stroke-linecap:butt;stroke-linejoin:miter;stroke-miterlimit:4;stroke-dasharray:none;stroke-opacity:1"
         d="m 33.785834,32.578445 c 0,0 1.125065,-12.428031 -2.577067,-16.106683 -0.469436,-0.466457 -1.504871,-0.793184 -2.102348,-0.508632 -1.588909,0.756731 -3.055063,5.148686 -3.255246,4.81505"
         id="path6576"
         sodipodi:nodetypes="cssc" />
      <path
         style="fill:none;stroke:#000000;stroke-width:1.4;stroke-linecap:butt;stroke-linejoin:miter;stroke-miterlimit:4;stroke-dasharray:none;stroke-opacity:1"
         d="m 36.600264,33.324435 c 0,0 1.041545,-15.616669 -3.729967,-19.463652 -0.932888,-0.752131 -2.652862,-1.44073 -3.729969,-0.915542 -2.094451,1.021236 -5.289775,6.917397 -5.289775,6.917397"
         id="path6578"
         sodipodi:nodetypes="cssc" />
      <path
         style="fill:none;stroke:#000000;stroke-width:1.4;stroke-linecap:butt;stroke-linejoin:miter;stroke-miterlimit:4;stroke-dasharray:none;stroke-opacity:1"
         d="m 38.872154,32.341082 c 0,0 1.071602,-16.456331 -4.47596,-20.95564 -1.487912,-1.20676 -5.296897,-2.144925 -6.578309,-0.983359 -2.551304,2.312682 -5.730589,9.053649 -5.730589,9.053649"
         id="path6580"
         sodipodi:nodetypes="cssc" />
      <path
         style="fill:none;stroke:#000000;stroke-width:1.4;stroke-linecap:butt;stroke-linejoin:miter;stroke-miterlimit:4;stroke-dasharray:none;stroke-opacity:1"
         d="m 11.058156,7.976191 c 0,0 1.717638,-0.502523 4.647963,0.043259 2.132228,0.397134 3.594948,1.013776 4.769662,2.837005 1.41639,2.198325 0.296112,8.267042 0.296112,8.267042"
         id="path6586"
         sodipodi:nodetypes="cssc" />
      <path
         style="fill:none;stroke:#000000;stroke-width:1.4;stroke-linecap:butt;stroke-linejoin:miter;stroke-miterlimit:4;stroke-dasharray:none;stroke-opacity:1"
         d="M 10.420989,10.482161 C 12.26244,9.5917 12.079613,9.77163 13.838678,9.70587 c 1.629085,-0.0609 3.114818,0.712573 4.12549,2.115851 1.386786,1.925501 1.186808,7.019122 1.186808,7.019122"
         id="path6588"
         sodipodi:nodetypes="cssc" />
      <ellipse
         style="fill:#80bc57;fill-opacity:1;stroke:#000000;stroke-width:1.4;stroke-linecap:square;stroke-linejoin:miter;stroke-miterlimit:4;stroke-dasharray:none;paint-order:normal"
         id="path6590"
         cx="15.524669"
         cy="30.11865"
         rx="1.0417198"
         ry="0.22097087" />
      <path
         style="fill:none;stroke:#000000;stroke-width:1px;stroke-linecap:butt;stroke-linejoin:miter;stroke-opacity:1"
         d="m 14.801079,24.519491 c 4.075601,0.345822 7.717504,1.55904 11.294643,2.901785"
         id="path6608"
         sodipodi:nodetypes="cc" />
      <ellipse
         style="fill:#000000;fill-opacity:1;stroke:#000000;stroke-width:1.5;stroke-linecap:square;stroke-linejoin:miter;stroke-miterlimit:4;stroke-dasharray:none;paint-order:normal"
         id="path6570"
         cx="-24.25746"
         cy="26.847857"
         rx="3.1535187"
         ry="2.7466133"
         transform="scale(-1,1)" />
      <path
         style="fill:#f4eed7;stroke:#000000;stroke-width:1px;stroke-linecap:butt;stroke-linejoin:miter;stroke-opacity:1"
         d="m 15.9375,21.026786 c 4.075601,0.345822 7.717504,1.55904 11.294643,2.901785"
         id="path6606"
         sodipodi:nodetypes="cc" />
      <path
         style="fill:#e5d7a0;fill-opacity:1;stroke-width:0.0446429;stroke-linejoin:round;stroke-dasharray:0.133929, 0.0669643"
         d="M 19.995573,18.468666 19.87954,18.455196 19.85272,17.307957 C 19.793434,14.77217 19.395843,12.783934 18.726694,11.677035 17.98354,10.447719 16.753846,9.5301603 15.326481,9.1399026 14.897702,9.0226695 14.860408,9.0201089 13.571428,9.0193968 12.429204,9.0187658 12.204116,9.0301068 11.875,9.1048705 11.517472,9.1860886 10.556376,9.5850496 10.158214,9.8175266 10.05892,9.8755022 9.1680395,10.31695 8.1784808,10.798522 6.4801791,11.625006 6.3650183,11.674073 6.1249094,11.673497 5.8057203,11.672733 5.6696428,11.63716 5.6696428,11.554483 c 0,-0.139258 0.2558933,-0.582806 0.4485421,-0.777472 C 6.392485,10.499838 7.7003865,9.6376274 8.2679937,9.3597875 9.0530461,8.9755099 9.7015623,8.805694 10.614979,8.7452223 c 0.23877,-0.015807 0.614932,-0.06804 0.835914,-0.1160722 0.595473,-0.1294309 2.144877,-0.1602488 3.013393,-0.059937 2.324167,0.2684368 3.758116,0.8198232 4.70238,1.8081729 0.814731,0.85277 1.080792,1.461669 1.237574,2.832276 0.05994,0.52398 0.05792,2.280186 -0.0035,3.034611 -0.06025,0.74021 -0.219111,2.068259 -0.258944,2.164729 -0.01946,0.04713 -0.07147,0.06835 -0.146234,0.05966 z"
         id="path1" />
      <path
         style="fill:#e5d7a0;fill-opacity:1;stroke-width:0.0446429;stroke-linejoin:round;stroke-dasharray:0.133929, 0.0669643"
         d="m 37.831137,33.563595 -0.434485,-0.789084 -0.0078,-2.949755 c -0.0073,-2.75703 -0.02614,-3.352464 -0.158307,-5.003328 -0.508464,-6.351198 -1.976643,-10.333569 -4.37339,-11.862631 -1.309282,-0.835287 -2.767648,-1.121552 -3.823374,-0.750494 -0.999872,0.351427 -2.344033,1.789214 -3.966319,4.24259 -0.480105,0.726061 -1.274938,2.018456 -1.587063,2.580558 -0.09294,0.167374 -0.121307,0.188564 -0.219886,0.164252 -0.06225,-0.01535 -0.130757,-0.04507 -0.15224,-0.06605 -0.07205,-0.07034 1.332837,-2.704148 2.259609,-4.236174 1.211811,-2.003216 2.589762,-3.800003 3.122732,-4.071904 1.040974,-0.531065 3.695343,-0.03844 5.219883,0.968768 0.162419,0.107304 0.487971,0.395826 0.723449,0.641161 1.929893,2.010674 3.159058,6.071273 3.622116,11.965815 0.131307,1.671487 0.169749,3.08503 0.149588,5.500523 -0.01795,2.150212 -0.01277,2.400635 0.05012,2.424877 0.05951,0.02294 0.05661,0.03434 -0.01915,0.07526 -0.04911,0.02652 -0.09531,0.05296 -0.102679,0.05875 -0.0074,0.0058 0.01689,0.289101 0.0539,0.629578 0.06152,0.565905 0.109678,1.266368 0.08706,1.266368 -0.0051,0 -0.204791,-0.355087 -0.443758,-0.789083 z"
         id="path2" />
      <path
         style="fill:#e5d7a0;fill-opacity:1;stroke-width:0.0446429;stroke-linejoin:round;stroke-dasharray:0.133929, 0.0669643"
         d="m 32.402383,33.720017 c -0.05432,-0.08324 -0.07381,-0.344068 -0.09783,-1.309303 -0.173103,-6.953962 -0.72726,-11.328321 -1.64292,-12.96875 -0.366903,-0.657317 -0.83447,-0.987723 -1.397752,-0.987723 -0.590347,0 -0.792568,0.193682 -1.605511,1.537716 l -0.444312,0.734579 -0.147206,-0.0702 c -0.08096,-0.03861 -0.147205,-0.08776 -0.147205,-0.109234 0,-0.02147 0.137076,-0.324111 0.304614,-0.672535 0.812459,-1.68965 1.546124,-2.817524 2.054509,-3.158429 0.191106,-0.128148 0.2305,-0.137647 0.489256,-0.117972 0.385302,0.0293 0.78798,0.232094 1.062099,0.534892 1.323737,1.462232 2.11169,4.505749 2.342998,9.049975 0.05803,1.140138 0.03138,4.446721 -0.0441,5.470607 -0.04092,0.555063 -0.05567,0.616367 -0.316294,1.314493 -0.340004,0.910754 -0.324825,0.882941 -0.410346,0.751881 z"
         id="path3" />
      <path
         style="fill:#e5d7a0;fill-opacity:1;stroke-width:0.0446429;stroke-linejoin:round;stroke-dasharray:0.133929, 0.0669643"
         d="m 20.044643,24.905367 c -0.921411,-0.242884 -2.210735,-0.511764 -3.164824,-0.660005 -0.402484,-0.06254 -0.742718,-0.12463 -0.756077,-0.13799 -0.02554,-0.02554 0.421268,-2.430656 0.458456,-2.467844 0.06484,-0.06484 2.084504,0.265156 3.35191,0.547676 0.845451,0.188461 2.669203,0.692069 3.614999,0.99824 0.310029,0.100363 0.376298,0.13514 0.290179,0.152286 -0.06138,0.01222 -0.272984,0.05235 -0.470221,0.08918 -0.89474,0.167069 -1.763976,0.692637 -2.324164,1.405265 -0.120455,0.153233 -0.229053,0.276075 -0.24133,0.272982 -0.01228,-0.0031 -0.353794,-0.093 -0.758928,-0.199792 z"
         id="path4" />
    </g>
  </g>
</svg>
