<?xml version="1.0" encoding="UTF-8" standalone="no"?>
<svg
   width="45"
   height="45"
   version="1.1"
   id="svg4343"
   sodipodi:docname="WR.svg"
   inkscape:version="1.3.2 (091e20e, 2023-11-25, custom)"
   xmlns:inkscape="http://www.inkscape.org/namespaces/inkscape"
   xmlns:sodipodi="http://sodipodi.sourceforge.net/DTD/sodipodi-0.dtd"
   xmlns="http://www.w3.org/2000/svg"
   xmlns:svg="http://www.w3.org/2000/svg"
   xmlns:rdf="http://www.w3.org/1999/02/22-rdf-syntax-ns#"
   xmlns:cc="http://creativecommons.org/ns#"
   xmlns:dc="http://purl.org/dc/elements/1.1/">
  <metadata
     id="metadata4349">
    <rdf:RDF>
      <cc:Work
         rdf:about="">
        <dc:format>image/svg+xml</dc:format>
        <dc:type
           rdf:resource="http://purl.org/dc/dcmitype/StillImage" />
        <dc:title />
      </cc:Work>
    </rdf:RDF>
  </metadata>
  <defs
     id="defs4347" />
  <sodipodi:namedview
     pagecolor="#ffffff"
     bordercolor="#666666"
     borderopacity="1"
     objecttolerance="10"
     gridtolerance="10"
     guidetolerance="10"
     inkscape:pageopacity="0"
     inkscape:pageshadow="2"
     inkscape:window-width="1835"
     inkscape:window-height="1051"
     id="namedview4345"
     showgrid="false"
     inkscape:zoom="22.4"
     inkscape:cx="36.852679"
     inkscape:cy="21.763393"
     inkscape:window-x="-9"
     inkscape:window-y="-9"
     inkscape:window-maximized="1"
     inkscape:current-layer="layer2"
     inkscape:document-rotation="0"
     inkscape:showpageshadow="0"
     inkscape:pagecheckerboard="0"
     inkscape:deskcolor="#505050" />
  <g
     inkscape:groupmode="layer"
     id="layer1"
     inkscape:label="BG" />
  <g
     inkscape:groupmode="layer"
     id="layer2"
     inkscape:label="Working">
    <g
       id="g9543"
       transform="translate(52.936828,-20.828612)">
      <path
         style="fill:#f4eed7;fill-opacity:1;stroke:#000000;stroke-width:1.5;stroke-linecap:butt;stroke-linejoin:miter;stroke-miterlimit:4;stroke-dasharray:none;stroke-opacity:1"
         d="m -44.593614,40.821706 c -0.14384,1.709617 -0.276336,3.778889 0.870535,5.3125 l 0.9375,-3.794643"
         id="path9504"
         sodipodi:nodetypes="ccc" />
      <path
         style="fill:#f4eed7;stroke:#000000;stroke-width:1.44802;stroke-linecap:butt;stroke-linejoin:miter;stroke-miterlimit:4;stroke-dasharray:none;stroke-opacity:1"
         d="m -33.82716,50.844027 c -0.395223,0 -2.832409,-1.519432 -4.368257,-1.584821 -0.964526,-0.04106 -1.844307,0.815231 -2.808165,0.758928 -1.233333,-0.07204 -3.473804,-1.383928 -3.473804,-1.383928 -0.835389,-0.33281 -1.76117,0.286792 -2.641755,0.78125 -1.061998,0.345674 -1.654971,-0.279304 -2.350539,-0.691964 l 0.603236,1.049107 -1.060862,-0.401786 c 0.384741,0.822744 1.367367,1.773551 2.340137,1.23884 0,0 1.298717,-1.136746 2.319337,-1.104911 1.237281,0.03859 2.13757,1.548176 3.369798,1.674107 1.287387,0.131568 3.22005,-1.151642 3.765021,-1.004465 0.972517,0.262641 2.076419,1.128747 3.088982,1.40625 0.819856,0.22469 2.236131,0.200889 2.236131,0.200889"
         id="path9506"
         sodipodi:nodetypes="csssccccsssssc" />
      <path
         style="fill:#f4eed7;fill-opacity:1;stroke:#000000;stroke-width:1.3;stroke-linecap:butt;stroke-linejoin:miter;stroke-miterlimit:4;stroke-dasharray:none;stroke-opacity:1"
         d="m -34.408321,38.30774 4.671956,-1.767767 c 4.299176,-0.0024 8.587727,0.06435 12.721608,1.136421 l -3.851206,1.167989 c 2.935848,0.389228 5.450522,1.241748 7.544577,2.556949 l -6.218752,0.06313 c 2.983446,0.720371 5.726764,1.734232 7.954951,3.377697 l -7.292038,-0.505076 c 3.257632,1.375336 5.926707,3.04495 7.670845,5.177032 l -6.976366,-1.736195 c 2.601809,1.170573 4.455127,2.727429 6.060915,4.230009 l -8.617863,-2.872617 c 2.151898,0.66807 4.139837,1.741365 5.934646,2.872621 1.002492,1.275648 2.720819,2.311924 -1.171161,1.989119 -2.071031,-0.613874 -2.788253,-1.410444 -4.005871,-1.515614 2.168652,1.181895 4.429219,2.73145 6.492025,3.489961 0.147374,0.08421 0.433301,1.776357 -0.441942,1.452094 -1.902939,1.050894 -4.477369,-1.38264 -4.567351,-1.904867 l 1.200486,2.076709 c -0.577983,0.903085 -0.678958,2.307029 -2.841054,1.546796 l -1.925603,-2.272843 c 0,0 0.888327,3.076494 0.947018,3.188294 0.209011,0.398145 -1.294349,1.219176 -2.241276,0.0947 l -2.209709,-1.830902 0.220971,2.43068 c 0.179644,0.694252 -1.321032,0.46797 -2.020305,-0.220971 -0.686064,-0.675927 -4.011788,-4.006851 -3.756505,-4.103745"
         id="path9512"
         sodipodi:nodetypes="cccccccccccccccccccccscccsc" />
      <path
         style="fill:none;stroke:#000000;stroke-width:1.2;stroke-linecap:butt;stroke-linejoin:miter;stroke-miterlimit:4;stroke-dasharray:none;stroke-opacity:1"
         d="m -32.924659,39.759834 c 4.505496,-1.296111 8.597994,-0.66489 12.879445,-0.915451"
         id="path9514"
         sodipodi:nodetypes="cc" />
      <path
         style="fill:none;stroke:#000000;stroke-width:1.2;stroke-linecap:butt;stroke-linejoin:miter;stroke-miterlimit:4;stroke-dasharray:none;stroke-opacity:1"
         d="m -31.819805,41.180361 c 4.4911,-0.33277 8.848886,-0.0201 13.005714,0.315673"
         id="path9516"
         sodipodi:nodetypes="cc" />
      <path
         style="fill:#f4eed7;fill-opacity:1;stroke:#000000;stroke-width:1.5;stroke-linecap:butt;stroke-linejoin:miter;stroke-miterlimit:4;stroke-dasharray:none;stroke-opacity:1"
         d="m -35.418473,38.939085 c -1.310104,0.247242 -3.375852,-0.110031 -5.241262,-0.307035 l -2.713689,-2.281481 c -0.713114,1.360462 -1.32792,2.760246 -1.452095,4.356283 4.858718,3.291489 8.636151,7.033513 12.520444,10.731013 l -7.331266,3.002991 c -2.083899,1.097941 -4.404647,1.769554 -7.083214,1.797092 -0.487248,1.021881 -0.09146,1.712623 1.325825,2.020305 4.306615,1.03841 6.011541,-1.63988 8.838835,-2.714785 l 4.166879,0.505076 1.262691,0.378807 c 2.884898,-1.181389 4.985937,-2.764757 4.608821,-5.618973 l -0.505076,-2.714785 c -1.97217,-3.299649 -4.322648,-6.570198 -7.386741,-9.785853 z"
         id="path9502"
         sodipodi:nodetypes="ccccccccccccccc" />
      <path
         style="fill:none;stroke:#000000;stroke-width:1.2;stroke-linecap:butt;stroke-linejoin:miter;stroke-miterlimit:4;stroke-dasharray:none;stroke-opacity:1"
         d="m -30.399278,42.758724 c 4.021294,0.440213 7.809804,0.829101 11.522053,1.578359"
         id="path9518"
         sodipodi:nodetypes="cc" />
      <path
         style="fill:none;stroke:#000000;stroke-width:1.5;stroke-linecap:butt;stroke-linejoin:miter;stroke-miterlimit:4;stroke-dasharray:none;stroke-opacity:1"
         d="m -38.008793,40.955635 c 0.229376,0.97075 0.565108,1.898956 1.383929,2.633928 1.957296,0.591394 2.359619,0.327553 3.214285,0.3125 -0.497693,-0.891611 -1.051485,-1.741148 -1.785714,-2.455357 -0.806258,-0.513668 -1.839747,-0.421389 -2.8125,-0.491071 z"
         id="path9508"
         sodipodi:nodetypes="ccccc" />
      <path
         style="fill:none;stroke:#000000;stroke-width:1.2;stroke-linecap:butt;stroke-linejoin:miter;stroke-miterlimit:4;stroke-dasharray:none;stroke-opacity:1"
         d="m -28.41054,45.947018 c 3.698874,0.387524 8.439004,0.527724 10.701303,2.020306"
         id="path9520"
         sodipodi:nodetypes="cc" />
      <path
         style="fill:none;stroke:#000000;stroke-width:1.2;stroke-linecap:butt;stroke-linejoin:miter;stroke-miterlimit:4;stroke-dasharray:none;stroke-opacity:1"
         d="m -27.02158,48.093593 6.723828,1.041719"
         id="path9522"
         sodipodi:nodetypes="cc" />
      <path
         style="fill:none;stroke:#000000;stroke-width:1.2;stroke-linecap:butt;stroke-linejoin:miter;stroke-miterlimit:4;stroke-dasharray:none;stroke-opacity:1"
         d="m -26.390235,49.987629 6.408155,2.493809"
         id="path9524"
         sodipodi:nodetypes="cc" />
      <path
         style="fill:none;stroke:#000000;stroke-width:1.2;stroke-linecap:round;stroke-linejoin:miter;stroke-miterlimit:4;stroke-dasharray:none;stroke-opacity:1"
         d="m -26.200831,52.197337 c 2.077424,0.798202 3.970748,1.657771 4.987628,2.809487"
         id="path9526"
         sodipodi:nodetypes="cc" />
      <path
         style="fill:none;stroke:#000000;stroke-width:1.2;stroke-linecap:round;stroke-linejoin:miter;stroke-miterlimit:4;stroke-dasharray:none;stroke-opacity:1"
         d="m -27.558224,54.343911 c 0.620225,0.08789 3.196234,1.69387 3.440832,2.367546"
         id="path9528"
         sodipodi:nodetypes="cc" />
    </g>
    <path
       style="fill:#e5d7a0;fill-opacity:1;stroke-width:0.0446429;stroke-linejoin:round;stroke-dasharray:0.133929, 0.0669643"
       d="M 32.321429,19.906974 C 29.412133,19.6609 25.844078,19.543383 23.501726,19.61649 c -0.910283,0.02841 -1.72402,0.06256 -1.808304,0.0759 -0.141561,0.02239 -0.165811,0.0078 -0.3181,-0.191175 -0.195862,-0.255929 -0.222494,-0.23577 0.487102,-0.368715 1.883306,-0.352842 3.497401,-0.448371 7.587153,-0.449037 2.565508,-4.18e-4 2.604901,9.27e-4 3.258929,0.111288 1.340328,0.226166 2.301013,0.469785 3.462916,0.878157 0.361916,0.127202 0.65321,0.234987 0.647321,0.239522 -0.0059,0.0045 -0.864502,0.01833 -1.908029,0.03066 -1.358339,0.01605 -2.093891,0.0058 -2.589285,-0.03611 z"
       id="path1" />
    <path
       style="fill:#e5d7a0;fill-opacity:1;stroke-width:0.0446429;stroke-linejoin:round;stroke-dasharray:0.133929, 0.0669643"
       d="M 37.165179,26.857207 C 35.623268,26.472412 34.994326,26.296375 34.792995,26.19325 34.169541,25.873907 32.987699,25.530549 31.696429,25.293612 30.445739,25.064121 29.239314,24.920974 26.584821,24.687099 25.872768,24.624364 25.25,24.564268 25.200893,24.553555 c -0.04911,-0.01071 -0.143816,-0.106471 -0.210464,-0.212792 -0.06665,-0.106322 -0.343381,-0.511585 -0.614964,-0.900586 -0.271582,-0.389 -0.48748,-0.713578 -0.479773,-0.721285 0.01879,-0.01879 2.474125,0.257284 4.027713,0.452864 2.537807,0.319483 5.741825,0.8366 5.887648,0.950245 0.02781,0.02167 0.291626,0.145321 0.586268,0.274782 1.253159,0.550617 2.749511,1.354226 3.675249,1.973777 0.499584,0.334347 1.347073,0.961683 1.347073,0.997143 0,0.04647 -0.244502,-0.0089 -2.254464,-0.510496 z"
       id="path2" />
    <path
       style="fill:#e5d7a0;fill-opacity:1;stroke-width:0.0446429;stroke-linejoin:round;stroke-dasharray:0.133929, 0.0669643"
       d="m 37.388393,32.522613 c -0.515666,-0.04408 -1.0412,-0.239042 -2.5,-0.927459 -0.819135,-0.386555 -1.219676,-0.526385 -1.674107,-0.584439 -0.216207,-0.02762 -1.04128,-0.329514 -3.236607,-1.184273 -1.620536,-0.630962 -2.969869,-1.178037 -2.998518,-1.215722 -0.05666,-0.07453 -0.12785,-0.499233 -0.09002,-0.537059 0.01282,-0.01282 1.167736,0.153472 2.566489,0.369529 1.810499,0.279658 2.537353,0.408036 2.522936,0.445606 -0.01264,0.03295 0.119231,0.09849 0.35104,0.174461 1.125489,0.368867 2.669745,1.07091 3.913962,1.779348 1.260922,0.717949 1.422567,0.832818 1.827385,1.298586 l 0.370056,0.425773 -0.347734,-0.0069 c -0.191254,-0.0038 -0.50845,-0.02065 -0.704878,-0.03744 z"
       id="path3" />
    <path
       style="fill:#e5d7a0;fill-opacity:1;stroke-width:0.0446429;stroke-linejoin:round;stroke-dasharray:0.133929, 0.0669643"
       d="m 17.538751,22.276379 c -0.72042,-0.143517 -0.836728,-0.195045 -1.048454,-0.464492 -0.10778,-0.137163 -0.267302,-0.38499 -0.354493,-0.550726 l -0.15853,-0.30134 h 0.154757 c 0.255439,0 0.81228,0.121924 1.004343,0.219907 0.163726,0.08353 0.561125,0.516582 0.914554,0.996611 l 0.123259,0.167411 -0.169683,-0.0042 c -0.09333,-0.0023 -0.302914,-0.03074 -0.465753,-0.06318 z"
       id="path4" />
  </g>
</svg>
